<svg version="1.1" id="Layer_1" xmlns="http://www.w3.org/2000/svg" xmlns:xlink="http://www.w3.org/1999/xlink" x="0px" y="0px"
	 width="300px" viewBox="0 0 782 147" enable-background="new 0 0 782 147" xml:space="preserve">
<path fill="#FEFEFE" opacity="1.000000" stroke="none" 
	d="
M753.000000,148.000000 
	C502.067413,148.000000 251.634796,148.000000 1.101098,148.000000 
	C1.101098,99.080765 1.101098,50.161259 1.101098,1.120873 
	C261.666626,1.120873 522.333313,1.120873 782.995911,1.120873 
	C782.995911,50.031811 782.995911,99.015907 782.993896,148.000000 
	C773.161194,148.000000 763.330627,148.000000 753.000000,148.000000 
M51.308643,111.612587 
	C63.990139,111.360023 76.912247,112.533958 89.284340,110.447075 
	C101.261993,108.426735 108.903374,99.492569 112.167160,86.510757 
	C112.444595,79.492958 113.406219,72.421150 112.857307,65.468590 
	C111.708015,50.911377 100.954231,38.393913 86.426346,37.178459 
	C69.950325,35.800011 53.270275,36.860268 36.251953,36.860268 
	C34.199089,40.036381 37.312466,42.797337 38.098042,46.618954 
	C42.731316,56.734764 50.508297,61.673946 61.727356,61.204113 
	C66.357834,61.010193 71.010216,61.336792 75.640442,61.139862 
	C81.370399,60.896160 86.240746,62.473595 90.533089,67.356773 
	C90.712868,70.474472 91.183975,73.608360 91.011734,76.706490 
	C90.653870,83.143608 85.263672,86.991104 77.524971,86.979546 
	C69.918991,86.968178 73.907890,81.173981 72.823006,77.911644 
	C72.772957,77.761162 72.828499,77.578918 72.804832,77.415833 
	C71.344498,67.352043 72.331406,69.026527 63.926914,68.890121 
	C61.104691,68.844315 58.267239,69.093216 55.460606,68.885330 
	C51.529163,68.594116 49.855873,70.215279 50.036507,74.986519 
	C50.116039,86.056351 50.195568,97.126183 50.296700,108.786331 
	C50.365719,109.172470 50.434742,109.558617 50.287785,110.338860 
	C50.376194,110.661423 50.583458,110.860222 51.308643,111.612587 
M413.940369,97.962730 
	C414.065948,99.545326 414.191559,101.127914 414.316742,102.705353 
	C418.345703,102.705353 421.921967,102.705353 426.012787,102.705353 
	C426.012787,96.492722 426.247681,90.548439 425.935364,84.633041 
	C425.702850,80.229050 427.006683,76.653419 429.496124,73.108719 
	C434.904297,65.408104 440.027283,57.507217 445.784851,48.915211 
	C443.543060,48.659065 442.161255,48.501186 441.036652,47.605312 
	C441.719238,46.158409 442.401825,44.711510 443.558960,42.258640 
	C440.345032,42.258640 437.891449,42.540764 435.527863,42.199425 
	C430.727448,41.506168 427.794647,43.414425 425.600281,47.649967 
	C423.570099,51.568504 420.865143,55.137444 418.053009,59.485592 
	C415.522614,55.697758 413.363159,52.607170 411.350311,49.423904 
	C406.542755,41.820938 402.119690,40.273006 392.239410,43.541538 
	C395.134003,48.656437 397.407562,53.999805 400.832428,58.458942 
	C408.780182,68.806908 414.327881,79.654198 412.060150,93.244545 
	C411.868011,94.396034 413.232788,95.807320 413.940369,97.962730 
M485.061310,97.612694 
	C495.086823,89.017654 498.511841,77.205833 494.411163,65.368294 
	C490.849762,55.087448 481.166168,47.659943 470.515564,47.039902 
	C458.345734,46.331421 447.276367,53.318050 442.941742,64.443626 
	C438.417480,76.055885 441.769379,89.559082 451.036804,97.054550 
	C460.431915,104.653328 473.529480,105.042503 485.061310,97.612694 
M291.210419,93.231270 
	C299.636536,102.792686 310.109619,105.168625 321.935883,101.378181 
	C332.322479,98.049164 339.449036,87.937897 339.969879,76.786369 
	C340.527863,64.839951 334.481628,54.377892 324.235565,49.560616 
	C312.805878,44.186855 299.589996,47.201218 291.318970,57.068413 
	C283.027283,66.960297 282.817413,81.262329 291.210419,93.231270 
M574.402405,48.780170 
	C566.020630,48.411419 557.638855,48.042667 548.993652,47.662327 
	C548.993652,57.501301 548.993591,66.461304 548.993591,75.421303 
	C548.993591,84.340927 548.993652,93.260544 548.993652,102.237709 
	C553.301514,102.237709 557.046143,102.237709 561.182129,102.237709 
	C561.182129,95.394867 561.182129,88.840317 561.182129,81.253036 
	C566.550720,88.033142 571.216248,94.008682 575.998596,99.889168 
	C576.874634,100.966339 578.181946,102.329056 579.365784,102.406631 
	C583.877625,102.702293 588.420349,102.525955 593.947144,102.525955 
	C587.242371,94.528831 581.325745,87.471703 575.172668,80.132637 
	C583.658386,76.496086 587.083069,70.320305 586.152100,61.664917 
	C585.424072,54.895039 581.468018,50.937057 574.402405,48.780170 
M499.380646,87.743797 
	C500.458832,93.648453 503.052032,99.047577 508.957001,100.706184 
	C514.387146,102.231422 520.437744,102.872200 526.020203,102.224510 
	C534.700745,101.217392 539.955505,96.130203 540.457520,87.537598 
	C541.228821,74.334732 540.660339,61.053593 540.660339,47.790459 
	C536.677429,47.790459 532.937622,47.790459 528.991699,47.790459 
	C528.991699,58.262791 529.040710,68.417732 528.954285,78.571510 
	C528.934692,80.874420 528.621826,83.211372 528.135132,85.465996 
	C527.179810,89.891747 523.834717,91.015175 519.840454,90.987221 
	C516.032654,90.960571 512.840942,89.804512 511.912598,85.651016 
	C511.374268,83.242256 511.068909,80.733322 511.045990,78.265862 
	C510.951965,68.148254 511.006744,58.029255 511.006744,47.723892 
	C506.820068,47.723892 503.064850,47.723892 499.200623,47.723892 
	C499.200623,60.952366 499.200623,73.918884 499.380646,87.743797 
M197.759247,78.309814 
	C201.923737,68.267525 206.088242,58.225227 210.544632,47.479061 
	C206.886505,47.479061 203.928741,47.709995 201.023376,47.418564 
	C197.657135,47.080898 196.036240,48.306450 194.918015,51.543480 
	C192.159180,59.529713 188.993118,67.376038 185.948990,75.262489 
	C185.048187,77.596184 184.008148,79.876137 182.743195,82.862244 
	C178.388397,71.564400 174.448486,61.187653 170.340118,50.878044 
	C169.817932,49.567707 168.502716,47.754677 167.403351,47.641068 
	C163.551559,47.243000 159.633423,47.486713 155.119720,47.486713 
	C161.888168,63.594177 168.295822,78.844398 174.704636,94.094139 
	C178.203903,102.420578 178.204803,102.420197 187.854553,101.778969 
	C190.998611,94.246399 194.186005,86.609978 197.759247,78.309814 
M622.901062,59.364216 
	C624.389099,60.007320 625.877075,60.650429 627.619812,61.403618 
	C629.264587,58.182976 630.807495,55.161732 632.452881,51.939919 
	C626.102539,48.106270 619.783447,46.382641 612.966797,47.162117 
	C605.697327,47.993362 599.559326,53.605057 598.211853,60.201031 
	C596.891846,66.662048 600.033325,72.397919 607.246033,76.373604 
	C610.584229,78.213676 614.246277,79.533432 617.374146,81.659004 
	C618.869812,82.675430 620.602844,85.390129 620.186340,86.672455 
	C619.622620,88.408234 617.233398,90.377357 615.378845,90.669563 
	C612.749146,91.083885 609.762939,90.439995 607.169495,89.548660 
	C604.441223,88.610962 601.996216,86.849167 599.251282,85.351334 
	C597.263489,88.718498 595.328430,91.996346 593.422485,95.224930 
	C601.428772,102.887352 615.323608,105.671722 624.599365,100.651512 
	C628.062927,98.776955 631.367126,95.085007 632.882385,91.446495 
	C636.167908,83.556969 632.806885,76.876282 624.275574,72.164894 
	C620.506470,70.083389 616.422913,68.553024 612.742310,66.339790 
	C611.459351,65.568275 609.993469,63.202557 610.332581,62.089233 
	C610.807556,60.529633 612.756531,58.627167 614.319946,58.371910 
	C616.817932,57.964058 619.517334,58.789696 622.901062,59.364216 
M658.569458,59.000931 
	C662.662476,59.000931 666.755432,59.000931 670.695312,59.000931 
	C670.695312,54.979359 670.695312,51.573841 670.695312,48.293636 
	C660.321594,48.293636 650.256653,48.293636 640.276489,48.293636 
	C640.276489,66.317924 640.276489,84.042778 640.276489,101.734253 
	C650.624451,101.734253 660.691589,101.734253 670.737793,101.734253 
	C670.737793,98.056801 670.737793,94.653145 670.737793,90.868408 
	C664.398315,90.868408 658.319519,90.868408 652.263794,90.868408 
	C652.263794,87.064705 652.263794,83.661446 652.263794,79.840637 
	C658.416138,79.840637 664.316223,79.840637 670.197083,79.840637 
	C670.197083,75.999039 670.197083,72.596458 670.197083,68.785042 
	C663.956970,68.785042 658.038757,68.785042 652.322754,68.785042 
	C652.322754,65.289009 652.322754,62.219307 652.322754,59.001198 
	C654.294861,59.001198 655.945679,59.001198 658.569458,59.000931 
M135.764740,90.943390 
	C135.416550,87.442558 135.068375,83.941727 134.674347,79.979980 
	C141.284271,79.979980 147.196762,79.979980 153.277863,79.979980 
	C153.277863,76.140724 153.277863,72.725327 153.277863,68.909653 
	C147.112946,68.909653 141.192032,68.909653 135.246780,68.909653 
	C135.246780,65.432610 135.246780,62.362316 135.246780,58.906754 
	C141.562531,58.906754 147.643234,58.906754 153.759979,58.906754 
	C153.759979,55.104412 153.759979,51.701855 153.759979,48.233971 
	C143.449051,48.233971 133.383347,48.233971 123.219925,48.233971 
	C123.219925,66.199471 123.219925,83.925873 123.219925,101.787857 
	C133.509018,101.787857 143.575516,101.787857 153.794769,101.787857 
	C153.794769,98.170326 153.794769,94.768669 153.794769,90.991234 
	C147.968719,90.991234 142.347107,90.991234 135.764740,90.943390 
M242.941818,48.720123 
	C232.759033,48.720123 222.576248,48.720123 212.360626,48.720123 
	C212.360626,66.249390 212.360626,84.093513 212.360626,101.651443 
	C222.797470,101.651443 232.869949,101.651443 242.647385,101.651443 
	C242.647385,97.889252 242.647385,94.483330 242.647385,90.700928 
	C236.217163,90.700928 230.139374,90.700928 224.351227,90.700928 
	C224.351227,86.893585 224.351227,83.490425 224.351227,79.866180 
	C230.487732,79.866180 236.274399,79.866180 242.280106,79.866180 
	C242.280106,76.208145 242.280106,72.787827 242.280106,68.955505 
	C236.141785,68.955505 230.226196,68.955505 224.223999,68.955505 
	C224.223999,65.470535 224.223999,62.401825 224.223999,59.001122 
	C227.408691,59.001122 230.370407,59.001125 233.332123,59.001125 
	C236.448776,59.001125 239.565430,59.001122 242.997345,59.001122 
	C242.997345,55.596184 242.997345,52.636906 242.941818,48.720123 
M357.002808,97.380234 
	C357.002808,92.299164 357.002808,87.218094 357.002808,81.925781 
	C360.778137,81.925781 363.941193,82.141182 367.065796,81.885849 
	C376.888977,81.083168 383.099182,74.566765 383.277863,65.111771 
	C383.460297,55.457325 378.028381,48.994820 368.113770,48.246498 
	C360.563232,47.676601 352.935181,48.133347 345.345154,48.133347 
	C345.345154,66.270691 345.345154,84.097122 345.345154,102.003044 
	C348.351440,102.003044 351.031036,101.783501 353.658386,102.060135 
	C356.753540,102.386002 357.384613,100.932007 357.002808,97.380234 
M715.998657,56.533554 
	C715.998657,71.615929 715.998657,86.698303 715.998657,101.728745 
	C720.297668,101.728745 724.035217,101.728745 728.152527,101.728745 
	C728.152527,94.380814 728.152527,87.309219 728.152527,79.859161 
	C734.282837,79.859161 740.028748,79.859161 745.742920,79.859161 
	C745.742920,76.059074 745.742920,72.655502 745.742920,68.872101 
	C739.737305,68.872101 733.991211,68.872101 728.255249,68.872101 
	C728.255249,65.071289 728.255249,61.668903 728.255249,57.850342 
	C734.741516,57.850342 740.974487,57.850342 747.207764,57.850342 
	C747.207764,54.006157 747.207764,50.598564 747.207764,47.302681 
	C736.656067,47.302681 726.416992,47.302681 715.998657,47.302681 
	C715.998657,50.250641 715.998657,52.897289 715.998657,56.533554 
M697.483276,101.999786 
	C701.252380,101.999786 705.021484,101.999786 708.726807,101.999786 
	C708.726807,98.043518 708.726807,94.640610 708.726807,90.857590 
	C702.388245,90.857590 696.313721,90.857590 689.840698,90.857590 
	C689.840698,76.254166 689.840698,62.040745 689.840698,47.802807 
	C685.675842,47.802807 681.938660,47.802807 678.290771,47.802807 
	C678.290771,66.003387 678.290771,83.895432 678.290771,101.999786 
	C684.550171,101.999786 690.519897,101.999786 697.483276,101.999786 
M262.001312,71.499596 
	C262.001312,63.591026 262.001312,55.682457 262.001312,47.820351 
	C257.630798,47.820351 253.906189,47.820351 250.312195,47.820351 
	C250.312195,66.057480 250.312195,83.948013 250.312195,101.706940 
	C260.695251,101.706940 270.761810,101.706940 280.703979,101.706940 
	C280.703979,97.989838 280.703979,94.584595 280.703979,90.805817 
	C274.337646,90.805817 268.266541,90.805817 262.001312,90.805817 
	C262.001312,84.441910 262.001312,78.470642 262.001312,71.499596 
z"/>
<path fill="#80D55D" opacity="1.000000" stroke="none" 
	d="
M50.333305,74.104202 
	C49.855873,70.215279 51.529163,68.594116 55.460606,68.885330 
	C58.267239,69.093216 61.104691,68.844315 63.926914,68.890121 
	C72.331406,69.026527 71.344498,67.352043 72.804832,77.415833 
	C72.828499,77.578918 72.772957,77.761162 72.823006,77.911644 
	C73.907890,81.173981 69.918991,86.968178 77.524971,86.979546 
	C85.263672,86.991104 90.653870,83.143608 91.011734,76.706490 
	C91.183975,73.608360 90.712868,70.474472 90.291595,66.762436 
	C89.615250,60.574253 85.643929,58.471573 80.973747,58.061485 
	C74.703308,57.510868 68.360931,57.583984 62.054340,57.687702 
	C53.158272,57.834000 45.780460,55.090855 40.577053,47.517700 
	C40.083961,46.800041 39.066208,46.442871 38.292038,45.918339 
	C37.312466,42.797337 34.199089,40.036381 36.251953,36.860268 
	C53.270275,36.860268 69.950325,35.800011 86.426346,37.178459 
	C100.954231,38.393913 111.708015,50.911377 112.857307,65.468590 
	C113.406219,72.421150 112.444595,79.492958 111.711014,87.098022 
	C110.776131,88.326553 110.185013,88.912117 109.835449,89.617409 
	C104.181511,101.025314 94.966476,107.362366 82.340485,108.309074 
	C75.047928,108.855881 67.700043,108.774742 60.377502,108.759819 
	C57.271641,108.753487 54.166912,108.192001 51.052944,107.423050 
	C51.030586,103.185112 51.081699,99.405365 50.989414,95.629128 
	C50.814049,88.453094 50.556641,81.279060 50.333305,74.104202 
z"/>
<path fill="#050505" opacity="1.000000" stroke="none" 
	d="
M484.769989,97.830475 
	C473.529480,105.042503 460.431915,104.653328 451.036804,97.054550 
	C441.769379,89.559082 438.417480,76.055885 442.941742,64.443626 
	C447.276367,53.318050 458.345734,46.331421 470.515564,47.039902 
	C481.166168,47.659943 490.849762,55.087448 494.411163,65.368294 
	C498.511841,77.205833 495.086823,89.017654 484.769989,97.830475 
M478.931824,63.632542 
	C474.011200,58.834671 467.676910,57.573547 462.155670,60.292480 
	C456.947968,62.857021 453.692047,70.203690 454.566132,77.417671 
	C455.629883,86.197098 460.661224,91.038612 468.686981,91.005852 
	C476.434784,90.974236 481.742432,86.250313 482.149994,77.495331 
	C482.352661,73.142166 480.335236,68.685654 478.931824,63.632542 
z"/>
<path fill="#050505" opacity="1.000000" stroke="none" 
	d="
M291.003784,92.934402 
	C282.817413,81.262329 283.027283,66.960297 291.318970,57.068413 
	C299.589996,47.201218 312.805878,44.186855 324.235565,49.560616 
	C334.481628,54.377892 340.527863,64.839951 339.969879,76.786369 
	C339.449036,87.937897 332.322479,98.049164 321.935883,101.378181 
	C310.109619,105.168625 299.636536,102.792686 291.003784,92.934402 
M326.546356,73.789497 
	C326.311035,72.308853 326.213684,70.790077 325.816742,69.354095 
	C324.005676,62.801853 319.298248,59.089279 312.830780,58.997784 
	C306.197479,58.903934 301.542725,62.282738 299.379181,68.762047 
	C295.279236,81.040474 302.364594,91.792938 314.016296,90.974747 
	C321.671936,90.437164 325.719025,85.172989 326.546356,73.789497 
z"/>
<path fill="#040404" opacity="1.000000" stroke="none" 
	d="
M574.805969,48.860924 
	C581.468018,50.937057 585.424072,54.895039 586.152100,61.664917 
	C587.083069,70.320305 583.658386,76.496086 575.172668,80.132637 
	C581.325745,87.471703 587.242371,94.528831 593.947144,102.525955 
	C588.420349,102.525955 583.877625,102.702293 579.365784,102.406631 
	C578.181946,102.329056 576.874634,100.966339 575.998596,99.889168 
	C571.216248,94.008682 566.550720,88.033142 561.182129,81.253036 
	C561.182129,88.840317 561.182129,95.394867 561.182129,102.237709 
	C557.046143,102.237709 553.301514,102.237709 548.993652,102.237709 
	C548.993652,93.260544 548.993591,84.340927 548.993591,75.421303 
	C548.993591,66.461304 548.993652,57.501301 548.993652,47.662327 
	C557.638855,48.042667 566.020630,48.411419 574.805969,48.860924 
M567.758484,58.256893 
	C565.654663,58.160793 563.550903,58.064697 561.242188,57.959240 
	C561.242188,62.809090 561.242188,67.344330 561.242188,71.977821 
	C565.886963,72.021767 570.856262,73.084267 572.625916,67.359215 
	C573.808838,63.532478 572.770081,60.138084 567.758484,58.256893 
z"/>
<path fill="#040404" opacity="1.000000" stroke="none" 
	d="
M499.290649,87.314598 
	C499.200623,73.918884 499.200623,60.952366 499.200623,47.723892 
	C503.064850,47.723892 506.820068,47.723892 511.006744,47.723892 
	C511.006744,58.029255 510.951965,68.148254 511.045990,78.265862 
	C511.068909,80.733322 511.374268,83.242256 511.912598,85.651016 
	C512.840942,89.804512 516.032654,90.960571 519.840454,90.987221 
	C523.834717,91.015175 527.179810,89.891747 528.135132,85.465996 
	C528.621826,83.211372 528.934692,80.874420 528.954285,78.571510 
	C529.040710,68.417732 528.991699,58.262791 528.991699,47.790459 
	C532.937622,47.790459 536.677429,47.790459 540.660339,47.790459 
	C540.660339,61.053593 541.228821,74.334732 540.457520,87.537598 
	C539.955505,96.130203 534.700745,101.217392 526.020203,102.224510 
	C520.437744,102.872200 514.387146,102.231422 508.957001,100.706184 
	C503.052032,99.047577 500.458832,93.648453 499.290649,87.314598 
z"/>
<path fill="#060606" opacity="1.000000" stroke="none" 
	d="
M197.566330,78.641693 
	C194.186005,86.609978 190.998611,94.246399 187.854553,101.778969 
	C178.204803,102.420197 178.203903,102.420578 174.704636,94.094139 
	C168.295822,78.844398 161.888168,63.594177 155.119720,47.486713 
	C159.633423,47.486713 163.551559,47.243000 167.403351,47.641068 
	C168.502716,47.754677 169.817932,49.567707 170.340118,50.878044 
	C174.448486,61.187653 178.388397,71.564400 182.743195,82.862244 
	C184.008148,79.876137 185.048187,77.596184 185.948990,75.262489 
	C188.993118,67.376038 192.159180,59.529713 194.918015,51.543480 
	C196.036240,48.306450 197.657135,47.080898 201.023376,47.418564 
	C203.928741,47.709995 206.886505,47.479061 210.544632,47.479061 
	C206.088242,58.225227 201.923737,68.267525 197.566330,78.641693 
z"/>
<path fill="#070707" opacity="1.000000" stroke="none" 
	d="
M622.516357,59.229027 
	C619.517334,58.789696 616.817932,57.964058 614.319946,58.371910 
	C612.756531,58.627167 610.807556,60.529633 610.332581,62.089233 
	C609.993469,63.202557 611.459351,65.568275 612.742310,66.339790 
	C616.422913,68.553024 620.506470,70.083389 624.275574,72.164894 
	C632.806885,76.876282 636.167908,83.556969 632.882385,91.446495 
	C631.367126,95.085007 628.062927,98.776955 624.599365,100.651512 
	C615.323608,105.671722 601.428772,102.887352 593.422485,95.224930 
	C595.328430,91.996346 597.263489,88.718498 599.251282,85.351334 
	C601.996216,86.849167 604.441223,88.610962 607.169495,89.548660 
	C609.762939,90.439995 612.749146,91.083885 615.378845,90.669563 
	C617.233398,90.377357 619.622620,88.408234 620.186340,86.672455 
	C620.602844,85.390129 618.869812,82.675430 617.374146,81.659004 
	C614.246277,79.533432 610.584229,78.213676 607.246033,76.373604 
	C600.033325,72.397919 596.891846,66.662048 598.211853,60.201031 
	C599.559326,53.605057 605.697327,47.993362 612.966797,47.162117 
	C619.783447,46.382641 626.102539,48.106270 632.452881,51.939919 
	C630.807495,55.161732 629.264587,58.182976 627.619812,61.403618 
	C625.877075,60.650429 624.389099,60.007320 622.516357,59.229027 
z"/>
<path fill="#010101" opacity="1.000000" stroke="none" 
	d="
M658.082947,59.001064 
	C655.945679,59.001198 654.294861,59.001198 652.322754,59.001198 
	C652.322754,62.219307 652.322754,65.289009 652.322754,68.785042 
	C658.038757,68.785042 663.956970,68.785042 670.197083,68.785042 
	C670.197083,72.596458 670.197083,75.999039 670.197083,79.840637 
	C664.316223,79.840637 658.416138,79.840637 652.263794,79.840637 
	C652.263794,83.661446 652.263794,87.064705 652.263794,90.868408 
	C658.319519,90.868408 664.398315,90.868408 670.737793,90.868408 
	C670.737793,94.653145 670.737793,98.056801 670.737793,101.734253 
	C660.691589,101.734253 650.624451,101.734253 640.276489,101.734253 
	C640.276489,84.042778 640.276489,66.317924 640.276489,48.293636 
	C650.256653,48.293636 660.321594,48.293636 670.695312,48.293636 
	C670.695312,51.573841 670.695312,54.979359 670.695312,59.000931 
	C666.755432,59.000931 662.662476,59.000931 658.082947,59.001064 
z"/>
<path fill="#010101" opacity="1.000000" stroke="none" 
	d="
M136.245117,90.967316 
	C142.347107,90.991234 147.968719,90.991234 153.794769,90.991234 
	C153.794769,94.768669 153.794769,98.170326 153.794769,101.787857 
	C143.575516,101.787857 133.509018,101.787857 123.219925,101.787857 
	C123.219925,83.925873 123.219925,66.199471 123.219925,48.233971 
	C133.383347,48.233971 143.449051,48.233971 153.759979,48.233971 
	C153.759979,51.701855 153.759979,55.104412 153.759979,58.906754 
	C147.643234,58.906754 141.562531,58.906754 135.246780,58.906754 
	C135.246780,62.362316 135.246780,65.432610 135.246780,68.909653 
	C141.192032,68.909653 147.112946,68.909653 153.277863,68.909653 
	C153.277863,72.725327 153.277863,76.140724 153.277863,79.979980 
	C147.196762,79.979980 141.284271,79.979980 134.674347,79.979980 
	C135.068375,83.941727 135.416550,87.442558 136.245117,90.967316 
z"/>
<path fill="#010101" opacity="1.000000" stroke="none" 
	d="
M242.969574,49.198875 
	C242.997345,52.636906 242.997345,55.596184 242.997345,59.001122 
	C239.565430,59.001122 236.448776,59.001125 233.332123,59.001125 
	C230.370407,59.001125 227.408691,59.001122 224.223999,59.001122 
	C224.223999,62.401825 224.223999,65.470535 224.223999,68.955505 
	C230.226196,68.955505 236.141785,68.955505 242.280106,68.955505 
	C242.280106,72.787827 242.280106,76.208145 242.280106,79.866180 
	C236.274399,79.866180 230.487732,79.866180 224.351227,79.866180 
	C224.351227,83.490425 224.351227,86.893585 224.351227,90.700928 
	C230.139374,90.700928 236.217163,90.700928 242.647385,90.700928 
	C242.647385,94.483330 242.647385,97.889252 242.647385,101.651443 
	C232.869949,101.651443 222.797470,101.651443 212.360626,101.651443 
	C212.360626,84.093513 212.360626,66.249390 212.360626,48.720123 
	C222.576248,48.720123 232.759033,48.720123 242.969574,49.198875 
z"/>
<path fill="#020202" opacity="1.000000" stroke="none" 
	d="
M357.002869,97.864380 
	C357.384613,100.932007 356.753540,102.386002 353.658386,102.060135 
	C351.031036,101.783501 348.351440,102.003044 345.345154,102.003044 
	C345.345154,84.097122 345.345154,66.270691 345.345154,48.133347 
	C352.935181,48.133347 360.563232,47.676601 368.113770,48.246498 
	C378.028381,48.994820 383.460297,55.457325 383.277863,65.111771 
	C383.099182,74.566765 376.888977,81.083168 367.065796,81.885849 
	C363.941193,82.141182 360.778137,81.925781 357.002808,81.925781 
	C357.002808,87.218094 357.002808,92.299164 357.002869,97.864380 
M369.790985,66.959579 
	C370.043396,59.589653 367.128296,57.537907 357.297607,58.275784 
	C357.297607,62.824718 357.297607,67.378868 357.297607,72.011856 
	C362.039917,71.855247 366.802704,72.695358 369.790985,66.959579 
z"/>
<path fill="#85D364" opacity="1.000000" stroke="none" 
	d="
M413.874268,97.097908 
	C413.232788,95.807320 411.868011,94.396034 412.060150,93.244545 
	C414.327881,79.654198 408.780182,68.806908 400.832428,58.458942 
	C397.407562,53.999805 395.134003,48.656437 392.239410,43.541538 
	C402.119690,40.273006 406.542755,41.820938 411.350311,49.423904 
	C413.363159,52.607170 415.522614,55.697758 418.053009,59.485592 
	C420.865143,55.137444 423.570099,51.568504 425.600281,47.649967 
	C427.794647,43.414425 430.727448,41.506168 435.527863,42.199425 
	C437.891449,42.540764 440.345032,42.258640 443.558960,42.258640 
	C442.401825,44.711510 441.719238,46.158409 440.699524,48.182442 
	C438.881134,50.715954 437.237640,52.571335 435.946289,54.645920 
	C429.854553,64.432266 422.023010,73.182556 423.745422,86.452339 
	C425.067535,96.638565 424.013824,96.775330 413.874268,97.097908 
z"/>
<path fill="#020202" opacity="1.000000" stroke="none" 
	d="
M715.998657,56.038746 
	C715.998657,52.897289 715.998657,50.250641 715.998657,47.302681 
	C726.416992,47.302681 736.656067,47.302681 747.207764,47.302681 
	C747.207764,50.598564 747.207764,54.006157 747.207764,57.850342 
	C740.974487,57.850342 734.741516,57.850342 728.255249,57.850342 
	C728.255249,61.668903 728.255249,65.071289 728.255249,68.872101 
	C733.991211,68.872101 739.737305,68.872101 745.742920,68.872101 
	C745.742920,72.655502 745.742920,76.059074 745.742920,79.859161 
	C740.028748,79.859161 734.282837,79.859161 728.152527,79.859161 
	C728.152527,87.309219 728.152527,94.380814 728.152527,101.728745 
	C724.035217,101.728745 720.297668,101.728745 715.998657,101.728745 
	C715.998657,86.698303 715.998657,71.615929 715.998657,56.038746 
z"/>
<path fill="#010101" opacity="1.000000" stroke="none" 
	d="
M696.986450,101.999786 
	C690.519897,101.999786 684.550171,101.999786 678.290771,101.999786 
	C678.290771,83.895432 678.290771,66.003387 678.290771,47.802807 
	C681.938660,47.802807 685.675842,47.802807 689.840698,47.802807 
	C689.840698,62.040745 689.840698,76.254166 689.840698,90.857590 
	C696.313721,90.857590 702.388245,90.857590 708.726807,90.857590 
	C708.726807,94.640610 708.726807,98.043518 708.726807,101.999786 
	C705.021484,101.999786 701.252380,101.999786 696.986450,101.999786 
z"/>
<path fill="#020202" opacity="1.000000" stroke="none" 
	d="
M262.001312,71.999481 
	C262.001312,78.470642 262.001312,84.441910 262.001312,90.805817 
	C268.266541,90.805817 274.337646,90.805817 280.703979,90.805817 
	C280.703979,94.584595 280.703979,97.989838 280.703979,101.706940 
	C270.761810,101.706940 260.695251,101.706940 250.312195,101.706940 
	C250.312195,83.948013 250.312195,66.057480 250.312195,47.820351 
	C253.906189,47.820351 257.630798,47.820351 262.001312,47.820351 
	C262.001312,55.682457 262.001312,63.591026 262.001312,71.999481 
z"/>
<path fill="#95A191" opacity="1.000000" stroke="none" 
	d="
M413.907318,97.530319 
	C424.013824,96.775330 425.067535,96.638565 423.745422,86.452339 
	C422.023010,73.182556 429.854553,64.432266 435.946289,54.645920 
	C437.237640,52.571335 438.881134,50.715954 440.570923,48.551437 
	C442.161255,48.501186 443.543060,48.659065 445.784851,48.915211 
	C440.027283,57.507217 434.904297,65.408104 429.496124,73.108719 
	C427.006683,76.653419 425.702850,80.229050 425.935364,84.633041 
	C426.247681,90.548439 426.012787,96.492722 426.012787,102.705353 
	C421.921967,102.705353 418.345703,102.705353 414.316742,102.705353 
	C414.191559,101.127914 414.065948,99.545326 413.907318,97.530319 
z"/>
<path fill="#0A1509" opacity="1.000000" stroke="none" 
	d="
M51.061668,107.882835 
	C54.166912,108.192001 57.271641,108.753487 60.377502,108.759819 
	C67.700043,108.774742 75.047928,108.855881 82.340485,108.309074 
	C94.966476,107.362366 104.181511,101.025314 109.835449,89.617409 
	C110.185013,88.912117 110.776131,88.326553 111.466705,87.444550 
	C108.903374,99.492569 101.261993,108.426735 89.284340,110.447075 
	C76.912247,112.533958 63.990139,111.360023 51.153694,111.070892 
	C51.002541,110.191521 50.837547,109.996712 50.503761,109.944756 
	C50.434742,109.558617 50.365719,109.172470 50.511902,108.486633 
	C50.727108,108.186935 51.061668,107.882835 51.061668,107.882835 
z"/>
<path fill="#081407" opacity="1.000000" stroke="none" 
	d="
M38.195038,46.268646 
	C39.066208,46.442871 40.083961,46.800041 40.577053,47.517700 
	C45.780460,55.090855 53.158272,57.834000 62.054340,57.687702 
	C68.360931,57.583984 74.703308,57.510868 80.973747,58.061485 
	C85.643929,58.471573 89.615250,60.574253 90.034592,66.547028 
	C86.240746,62.473595 81.370399,60.896160 75.640442,61.139862 
	C71.010216,61.336792 66.357834,61.010193 61.727356,61.204113 
	C50.508297,61.673946 42.731316,56.734764 38.195038,46.268646 
z"/>
<path fill="#79A168" opacity="1.000000" stroke="none" 
	d="
M51.052944,107.423050 
	C51.061668,107.882835 50.727108,108.186935 50.501102,108.191475 
	C50.195568,97.126183 50.116039,86.056351 50.184906,74.545364 
	C50.556641,81.279060 50.814049,88.453094 50.989414,95.629128 
	C51.081699,99.405365 51.030586,103.185112 51.052944,107.423050 
z"/>
<path fill="#79A168" opacity="1.000000" stroke="none" 
	d="
M50.395775,110.141808 
	C50.837547,109.996712 51.002541,110.191521 50.954159,110.732224 
	C50.583458,110.860222 50.376194,110.661423 50.395775,110.141808 
z"/>
<path fill="#FAFAFA" opacity="1.000000" stroke="none" 
	d="
M479.126953,63.954224 
	C480.335236,68.685654 482.352661,73.142166 482.149994,77.495331 
	C481.742432,86.250313 476.434784,90.974236 468.686981,91.005852 
	C460.661224,91.038612 455.629883,86.197098 454.566132,77.417671 
	C453.692047,70.203690 456.947968,62.857021 462.155670,60.292480 
	C467.676910,57.573547 474.011200,58.834671 479.126953,63.954224 
z"/>
<path fill="#FAFAFA" opacity="1.000000" stroke="none" 
	d="
M326.575806,74.194695 
	C325.719025,85.172989 321.671936,90.437164 314.016296,90.974747 
	C302.364594,91.792938 295.279236,81.040474 299.379181,68.762047 
	C301.542725,62.282738 306.197479,58.903934 312.830780,58.997784 
	C319.298248,59.089279 324.005676,62.801853 325.816742,69.354095 
	C326.213684,70.790077 326.311035,72.308853 326.575806,74.194695 
z"/>
<path fill="#F7F7F7" opacity="1.000000" stroke="none" 
	d="
M568.158325,58.376240 
	C572.770081,60.138084 573.808838,63.532478 572.625916,67.359215 
	C570.856262,73.084267 565.886963,72.021767 561.242188,71.977821 
	C561.242188,67.344330 561.242188,62.809090 561.242188,57.959240 
	C563.550903,58.064697 565.654663,58.160793 568.158325,58.376240 
z"/>
<path fill="#F8F8F8" opacity="1.000000" stroke="none" 
	d="
M369.627991,67.318161 
	C366.802704,72.695358 362.039917,71.855247 357.297607,72.011856 
	C357.297607,67.378868 357.297607,62.824718 357.297607,58.275784 
	C367.128296,57.537907 370.043396,59.589653 369.627991,67.318161 
z"/>
</svg>